<svg xmlns="http://www.w3.org/2000/svg" version="1.1" xmlns:xlink="http://www.w3.org/1999/xlink" xmlns:svgjs="http://svgjs.dev/svgjs" width="1000" height="623" viewBox="0 0 1000 623"><g transform="matrix(1,0,0,1,-0.6060606060606233,0.25222672064785456)"><svg viewBox="0 0 396 247" data-background-color="#ffffff" preserveAspectRatio="xMidYMid meet" height="623" width="1000" xmlns="http://www.w3.org/2000/svg" xmlns:xlink="http://www.w3.org/1999/xlink"><g id="tight-bounds" transform="matrix(1,0,0,1,0.2400000000000091,-0.09999999999999432)"><svg viewBox="0 0 395.52 247.2" height="247.2" width="395.52"><g><svg></svg></g><g><svg viewBox="0 0 395.52 247.2" height="247.2" width="395.52"><g transform="matrix(1,0,0,1,75.54432,106.49440402952669)"><svg viewBox="0 0 244.43135999999998 34.21119194094659" height="34.21119194094659" width="244.43135999999998"><g><svg viewBox="0 0 244.43135999999998 34.21119194094659" height="34.21119194094659" width="244.43135999999998"><g><svg viewBox="0 0 244.43135999999998 34.21119194094659" height="34.21119194094659" width="244.43135999999998"><g><svg viewBox="0 0 244.43135999999998 34.21119194094659" height="34.21119194094659" width="244.43135999999998"><g><svg viewBox="0 0 244.43135999999998 34.21119194094659" height="34.21119194094659" width="244.43135999999998"><g><svg viewBox="0 0 244.43135999999998 34.21119194094659" height="34.21119194094659" width="244.43135999999998"><g transform="matrix(1,0,0,1,0,0)"><svg width="244.43135999999998" viewBox="2.5 -37.75 345.4200134277344 48.349998474121094" height="34.21119194094659" data-palette-color="#ef86c1"><path d="M8.6 0.15L8.6 0.15Q7.05 0.15 6.53-0.35 6-0.85 6-2.15L6-2.15 6-24.15 2.5-24.15 2.5-25.4 3.45-25.4Q4.95-25.4 5.53-25.88 6.1-26.35 6.2-27.5L6.2-27.5 6.6-32.5 7.75-32.5 7.75-25.4 14.75-25.4 14.75-24.15 7.75-24.15 7.75-1.25 14.75-1.25 14.75-0.25Q14.2-0.15 13.4-0.1 12.6-0.05 11.75 0.03 10.9 0.1 10.05 0.13 9.2 0.15 8.6 0.15ZM17.8 0L17.8-1.25 21.95-1.25 21.95-35.8 17.8-36.15 17.8-37.05 23.7-37.75 23.7-21.35 23.85-21.35Q24.2-22.25 24.82-23.1 25.45-23.95 26.37-24.58 27.3-25.2 28.6-25.6 29.9-26 31.6-26L31.6-26Q40.1-26 40.1-16.4L40.1-16.4 40.1-1.25 44.25-1.25 44.25 0 34.2 0 34.2-1.25 38.35-1.25 38.35-16.15Q38.35-20.55 36.52-22.6 34.7-24.65 31.1-24.65L31.1-24.65Q29.65-24.65 28.32-24.25 27-23.85 25.97-23.05 24.95-22.25 24.32-21.05 23.7-19.85 23.7-18.2L23.7-18.2 23.7-1.25 27.85-1.25 27.85 0 17.8 0ZM47.9 0L47.9-1.25 52.05-1.25 52.05-23.8 47.9-24.15 47.9-25.05 53.8-25.8 53.8-20.85 53.95-20.85Q54.3-21.75 54.9-22.68 55.5-23.6 56.4-24.35 57.3-25.1 58.45-25.55 59.59-26 61.05-26L61.05-26Q64.2-26 64.2-23.6L64.2-23.6Q64.2-22.75 63.75-22.28 63.3-21.8 62.55-21.8L62.55-21.8Q61.8-21.8 61.34-22.25 60.9-22.7 60.9-23.4L60.9-23.4Q60.9-23.95 61.15-24.35 61.4-24.75 61.65-24.85L61.65-24.85 61.65-24.95Q61.25-25 61.07-25 60.9-25 60.55-25L60.55-25Q59.4-25 58.2-24.4 57-23.8 56.02-22.8 55.05-21.8 54.42-20.55 53.8-19.3 53.8-18.05L53.8-18.05 53.8-1.25 58.95-1.25 58.95 0 47.9 0ZM78.39 0.6L78.39 0.6Q75.94 0.6 73.94-0.23 71.94-1.05 70.49-2.73 69.04-4.4 68.24-6.9 67.44-9.4 67.44-12.7L67.44-12.7Q67.44-15.85 68.24-18.32 69.04-20.8 70.49-22.5 71.94-24.2 73.97-25.1 75.99-26 78.44-26L78.44-26Q80.74-26 82.59-25.13 84.44-24.25 85.74-22.68 87.04-21.1 87.74-18.95 88.44-16.8 88.44-14.2L88.44-14.2 88.44-13.6 69.39-13.6 69.39-11.7Q69.39-6.3 71.94-3.58 74.49-0.85 78.54-0.85L78.54-0.85Q80.19-0.85 81.49-1.28 82.79-1.7 83.84-2.4 84.89-3.1 85.67-4.05 86.44-5 86.99-6L86.99-6 87.89-5.4Q87.34-4.35 86.52-3.28 85.69-2.2 84.52-1.35 83.34-0.5 81.82 0.05 80.29 0.6 78.39 0.6ZM69.39-14.75L86.54-14.75 86.54-14.85Q86.54-17 85.99-18.82 85.44-20.65 84.42-21.98 83.39-23.3 81.89-24.05 80.39-24.8 78.44-24.8L78.44-24.8Q76.39-24.8 74.74-24.08 73.09-23.35 71.89-22.03 70.69-20.7 70.04-18.85 69.39-17 69.39-14.75L69.39-14.75ZM102.09 0.6L102.09 0.6Q98.34 0.6 96.24-1.25 94.14-3.1 94.14-6.2L94.14-6.2Q94.14-8.05 94.74-9.43 95.34-10.8 96.64-11.73 97.94-12.65 100.04-13.1 102.14-13.55 105.09-13.55L105.09-13.55 110.24-13.55 110.24-17.95Q110.24-21.35 108.42-23.08 106.59-24.8 103.19-24.8L103.19-24.8Q100.89-24.8 99.44-24.4 97.99-24 97.24-23.45L97.24-23.45 97.24-23.35Q97.74-23.1 98.09-22.7 98.44-22.3 98.44-21.65L98.44-21.65Q98.44-20.9 97.99-20.45 97.54-20 96.79-20L96.79-20Q96.09-20 95.64-20.45 95.19-20.9 95.19-21.7L95.19-21.7Q95.19-22.5 95.81-23.28 96.44-24.05 97.54-24.65 98.64-25.25 100.19-25.63 101.74-26 103.54-26L103.54-26Q107.44-26 109.72-24 111.99-22 111.99-18.2L111.99-18.2 111.99-1.05 115.94-1.05 115.94-0.15Q115.44 0.1 114.52 0.25 113.59 0.4 112.84 0.4L112.84 0.4Q111.49 0.4 110.92-0.18 110.34-0.75 110.34-2.15L110.34-2.15 110.34-4.35 110.19-4.35Q109.84-3.45 109.22-2.58 108.59-1.7 107.62-1 106.64-0.3 105.27 0.15 103.89 0.6 102.09 0.6ZM102.49-0.75L102.49-0.75Q104.14-0.75 105.56-1.23 106.99-1.7 108.02-2.58 109.04-3.45 109.64-4.63 110.24-5.8 110.24-7.2L110.24-7.2 110.24-12.45 105.44-12.45Q102.79-12.45 100.99-12.08 99.19-11.7 98.09-11 96.99-10.3 96.52-9.25 96.04-8.2 96.04-6.85L96.04-6.85 96.04-5.7Q96.04-3.5 97.69-2.13 99.34-0.75 102.49-0.75ZM131.14 0.6L131.14 0.6Q126.19 0.6 123.39-2.73 120.59-6.05 120.59-12.7L120.59-12.7Q120.59-19.35 123.39-22.68 126.19-26 131.14-26L131.14-26Q132.79-26 134.09-25.6 135.39-25.2 136.41-24.55 137.44-23.9 138.14-23.05 138.84-22.2 139.24-21.25L139.24-21.25 139.39-21.25 139.39-35.8 135.24-36.15 135.24-37.05 141.14-37.75 141.14-1.6 145.29-1.25 145.29-0.35 139.39 0.4 139.39-4.15 139.24-4.15Q138.39-2.3 136.41-0.85 134.44 0.6 131.14 0.6ZM131.44-0.75L131.44-0.75Q132.99-0.75 134.44-1.2 135.89-1.65 136.99-2.48 138.09-3.3 138.74-4.48 139.39-5.65 139.39-7.1L139.39-7.1 139.39-18.3Q139.39-19.75 138.74-20.93 138.09-22.1 136.99-22.93 135.89-23.75 134.44-24.2 132.99-24.65 131.44-24.65L131.44-24.65Q127.14-24.65 124.81-21.8 122.49-18.95 122.49-14.1L122.49-14.1 122.49-11.3Q122.49-6.45 124.81-3.6 127.14-0.75 131.44-0.75ZM172.23 0.6L172.23 0.6Q169.88 0.6 167.93-0.05 165.98-0.7 164.58-1.88 163.18-3.05 162.43-4.7 161.68-6.35 161.68-8.4L161.68-8.4Q161.68-10.35 162.31-11.88 162.93-13.4 164.01-14.6 165.08-15.8 166.61-16.75 168.13-17.7 169.93-18.55L169.93-18.55 169.38-19.15Q167.48-21.25 166.28-23.25 165.08-25.25 165.08-27.65L165.08-27.65Q165.08-31.15 167.43-33.33 169.78-35.5 173.78-35.5L173.78-35.5Q175.63-35.5 177.13-34.95 178.63-34.4 179.71-33.48 180.78-32.55 181.38-31.28 181.98-30 181.98-28.5L181.98-28.5Q181.98-26.85 181.28-25.45 180.58-24.05 179.33-22.85 178.08-21.65 176.28-20.58 174.48-19.5 172.33-18.5L172.33-18.5 183.03-7.55Q183.88-9.45 184.28-11.7 184.68-13.95 184.78-16.5L184.78-16.5 180.43-16.5 180.43-17.75 190.48-17.75 190.48-16.5 186.13-16.5Q185.98-10.6 183.98-6.6L183.98-6.6 186.93-3.6Q187.58-2.95 188.16-2.5 188.73-2.05 189.38-1.78 190.03-1.5 190.81-1.38 191.58-1.25 192.63-1.25L192.63-1.25 192.63 0 191.33 0Q190.33 0 189.58-0.18 188.83-0.35 188.13-0.7 187.43-1.05 186.76-1.6 186.08-2.15 185.33-2.9L185.33-2.9 183.08-5.15Q181.28-2.2 178.51-0.8 175.73 0.6 172.23 0.6ZM170.93-19.95L171.53-19.3Q175.58-21.2 177.88-23.25 180.18-25.3 180.18-27.95L180.18-27.95 180.18-28.65Q180.18-29.95 179.68-30.98 179.18-32 178.31-32.73 177.43-33.45 176.26-33.85 175.08-34.25 173.73-34.25L173.73-34.25Q170.48-34.25 168.71-32.48 166.93-30.7 166.93-28.15L166.93-28.15 166.93-27.3Q166.93-25.2 168.13-23.45 169.33-21.7 170.93-19.95L170.93-19.95ZM172.33-0.75L172.33-0.75Q175.93-0.75 178.33-2.18 180.73-3.6 182.18-6.1L182.18-6.1 170.73-17.75Q167.48-16.15 165.58-14.15 163.68-12.15 163.68-8.95L163.68-8.95 163.68-7.95Q163.68-6.3 164.33-4.98 164.98-3.65 166.13-2.7 167.28-1.75 168.86-1.25 170.43-0.75 172.33-0.75ZM218.58 10.6L218.58 10.6Q215.73 10.6 213.68 10.15 211.63 9.7 210.35 8.85 209.08 8 208.48 6.8 207.88 5.6 207.88 4.15L207.88 4.15Q207.88 1.95 209.35 0.48 210.83-1 213.08-1.55L213.08-1.55 213.08-1.75Q211.63-2.15 210.9-3.1 210.18-4.05 210.18-5.35L210.18-5.35Q210.18-7.15 211.53-8.22 212.88-9.3 214.58-9.75L214.58-9.75 214.58-9.85Q212.33-10.8 211.03-12.78 209.73-14.75 209.73-17.55L209.73-17.55Q209.73-19.5 210.38-21.08 211.03-22.65 212.2-23.73 213.38-24.8 215.03-25.4 216.68-26 218.68-26L218.68-26Q220.88-26 222.55-25.33 224.23-24.65 225.38-23.4L225.38-23.4Q225.43-28.7 228.13-28.7L228.13-28.7Q228.88-28.7 229.33-28.25 229.78-27.8 229.78-27.1L229.78-27.1Q229.78-26.4 229.35-26 228.93-25.6 228.23-25.6L228.23-25.6Q227.53-25.6 227.18-26 226.83-26.4 226.73-26.95L226.73-26.95 226.63-26.95Q226.28-26.05 226.28-22.3L226.28-22.3Q226.83-21.4 227.23-20.2 227.63-19 227.63-17.55L227.63-17.55Q227.63-15.6 226.98-14.03 226.33-12.45 225.13-11.38 223.93-10.3 222.28-9.7 220.63-9.1 218.68-9.1L218.68-9.1Q217.13-9.1 215.88-9.4L215.88-9.4Q213.98-9 212.78-8.05 211.58-7.1 211.58-5.7L211.58-5.7Q211.58-4.6 212.48-3.83 213.38-3.05 215.93-3.05L215.93-3.05 222.48-3.05Q226.83-3.05 228.8-1.4 230.78 0.25 230.78 3.05L230.78 3.05Q230.78 6.85 227.63 8.72 224.48 10.6 218.58 10.6ZM218.68-10.3L218.68-10.3Q222.08-10.3 223.9-12.1 225.73-13.9 225.73-16.6L225.73-16.6 225.73-18.5Q225.73-21.2 223.9-23 222.08-24.8 218.68-24.8L218.68-24.8Q215.28-24.8 213.45-23 211.63-21.2 211.63-18.5L211.63-18.5 211.63-16.6Q211.63-13.9 213.45-12.1 215.28-10.3 218.68-10.3ZM209.58 4.15L209.58 4.15Q209.58 6.55 211.7 7.95 213.83 9.35 217.43 9.35L217.43 9.35 219.88 9.35Q221.93 9.35 223.63 8.97 225.33 8.6 226.53 7.85 227.73 7.1 228.4 5.98 229.08 4.85 229.08 3.3L229.08 3.3Q229.08 1.15 227.55-0.1 226.03-1.35 222.18-1.35L222.18-1.35 214.38-1.35Q212.13-0.65 210.85 0.68 209.58 2 209.58 4.15ZM239.53-33.05L239.53-33.05Q238.73-33.05 238.3-33.5 237.88-33.95 237.88-34.65L237.88-34.65 237.88-34.75Q237.88-35.45 238.3-35.9 238.73-36.35 239.53-36.35L239.53-36.35Q240.33-36.35 240.75-35.9 241.18-35.45 241.18-34.75L241.18-34.75 241.18-34.65Q241.18-33.95 240.75-33.5 240.33-33.05 239.53-33.05ZM234.53 0L234.53-1.25 238.68-1.25 238.68-23.8 234.53-24.15 234.53-25.05 240.43-25.8 240.43-1.25 244.58-1.25 244.58 0 234.53 0ZM248.42 0L248.42-1.25 252.57-1.25 252.57-23.8 248.42-24.15 248.42-25.05 254.32-25.8 254.32-21.35 254.47-21.35Q254.77-22.25 255.4-23.1 256.02-23.95 256.97-24.58 257.92-25.2 259.22-25.6 260.52-26 262.22-26L262.22-26Q270.72-26 270.72-16.4L270.72-16.4 270.72-1.25 274.87-1.25 274.87 0 264.82 0 264.82-1.25 268.97-1.25 268.97-16.15Q268.97-20.55 267.15-22.6 265.32-24.65 261.72-24.65L261.72-24.65Q260.27-24.65 258.95-24.25 257.62-23.85 256.6-23.05 255.57-22.25 254.95-21.05 254.32-19.85 254.32-18.2L254.32-18.2 254.32-1.25 258.47-1.25 258.47 0 248.42 0ZM289.37 10.6L289.37 10.6Q286.52 10.6 284.47 10.15 282.42 9.7 281.15 8.85 279.87 8 279.27 6.8 278.67 5.6 278.67 4.15L278.67 4.15Q278.67 1.95 280.15 0.48 281.62-1 283.87-1.55L283.87-1.55 283.87-1.75Q282.42-2.15 281.69-3.1 280.97-4.05 280.97-5.35L280.97-5.35Q280.97-7.15 282.32-8.22 283.67-9.3 285.37-9.75L285.37-9.75 285.37-9.85Q283.12-10.8 281.82-12.78 280.52-14.75 280.52-17.55L280.52-17.55Q280.52-19.5 281.17-21.08 281.82-22.65 283-23.73 284.17-24.8 285.82-25.4 287.47-26 289.47-26L289.47-26Q291.67-26 293.35-25.33 295.02-24.65 296.17-23.4L296.17-23.4Q296.22-28.7 298.92-28.7L298.92-28.7Q299.67-28.7 300.12-28.25 300.57-27.8 300.57-27.1L300.57-27.1Q300.57-26.4 300.15-26 299.72-25.6 299.02-25.6L299.02-25.6Q298.32-25.6 297.97-26 297.62-26.4 297.52-26.95L297.52-26.95 297.42-26.95Q297.07-26.05 297.07-22.3L297.07-22.3Q297.62-21.4 298.02-20.2 298.42-19 298.42-17.55L298.42-17.55Q298.42-15.6 297.77-14.03 297.12-12.45 295.92-11.38 294.72-10.3 293.07-9.7 291.42-9.1 289.47-9.1L289.47-9.1Q287.92-9.1 286.67-9.4L286.67-9.4Q284.77-9 283.57-8.05 282.37-7.1 282.37-5.7L282.37-5.7Q282.37-4.6 283.27-3.83 284.17-3.05 286.72-3.05L286.72-3.05 293.27-3.05Q297.62-3.05 299.6-1.4 301.57 0.25 301.57 3.05L301.57 3.05Q301.57 6.85 298.42 8.72 295.27 10.6 289.37 10.6ZM289.47-10.3L289.47-10.3Q292.87-10.3 294.69-12.1 296.52-13.9 296.52-16.6L296.52-16.6 296.52-18.5Q296.52-21.2 294.69-23 292.87-24.8 289.47-24.8L289.47-24.8Q286.07-24.8 284.25-23 282.42-21.2 282.42-18.5L282.42-18.5 282.42-16.6Q282.42-13.9 284.25-12.1 286.07-10.3 289.47-10.3ZM280.37 4.15L280.37 4.15Q280.37 6.55 282.5 7.95 284.62 9.35 288.22 9.35L288.22 9.35 290.67 9.35Q292.72 9.35 294.42 8.97 296.12 8.6 297.32 7.85 298.52 7.1 299.19 5.98 299.87 4.85 299.87 3.3L299.87 3.3Q299.87 1.15 298.35-0.1 296.82-1.35 292.97-1.35L292.97-1.35 285.17-1.35Q282.92-0.65 281.65 0.68 280.37 2 280.37 4.15ZM316.67 0.6L316.67 0.6Q314.22 0.6 312.22-0.23 310.22-1.05 308.77-2.73 307.32-4.4 306.52-6.9 305.72-9.4 305.72-12.7L305.72-12.7Q305.72-15.85 306.52-18.32 307.32-20.8 308.77-22.5 310.22-24.2 312.24-25.1 314.27-26 316.72-26L316.72-26Q319.02-26 320.87-25.13 322.72-24.25 324.02-22.68 325.32-21.1 326.02-18.95 326.72-16.8 326.72-14.2L326.72-14.2 326.72-13.6 307.67-13.6 307.67-11.7Q307.67-6.3 310.22-3.58 312.77-0.85 316.82-0.85L316.82-0.85Q318.47-0.85 319.77-1.28 321.07-1.7 322.12-2.4 323.17-3.1 323.94-4.05 324.72-5 325.27-6L325.27-6 326.17-5.4Q325.62-4.35 324.79-3.28 323.97-2.2 322.79-1.35 321.62-0.5 320.09 0.05 318.57 0.6 316.67 0.6ZM307.67-14.75L324.82-14.75 324.82-14.85Q324.82-17 324.27-18.82 323.72-20.65 322.69-21.98 321.67-23.3 320.17-24.05 318.67-24.8 316.72-24.8L316.72-24.8Q314.67-24.8 313.02-24.08 311.37-23.35 310.17-22.03 308.97-20.7 308.32-18.85 307.67-17 307.67-14.75L307.67-14.75ZM331.62 0L331.62-1.25 335.77-1.25 335.77-23.8 331.62-24.15 331.62-25.05 337.52-25.8 337.52-20.85 337.67-20.85Q338.02-21.75 338.62-22.68 339.22-23.6 340.12-24.35 341.02-25.1 342.17-25.55 343.32-26 344.77-26L344.77-26Q347.92-26 347.92-23.6L347.92-23.6Q347.92-22.75 347.47-22.28 347.02-21.8 346.27-21.8L346.27-21.8Q345.52-21.8 345.07-22.25 344.62-22.7 344.62-23.4L344.62-23.4Q344.62-23.95 344.87-24.35 345.12-24.75 345.37-24.85L345.37-24.85 345.37-24.95Q344.97-25 344.79-25 344.62-25 344.27-25L344.27-25Q343.12-25 341.92-24.4 340.72-23.8 339.74-22.8 338.77-21.8 338.14-20.55 337.52-19.3 337.52-18.05L337.52-18.05 337.52-1.25 342.67-1.25 342.67 0 331.62 0Z" opacity="1" transform="matrix(1,0,0,1,0,0)" fill="#000000" class="undefined-text-0" data-fill-palette-color="primary" id="text-0"></path></svg></g></svg></g></svg></g></svg></g></svg></g></svg></g></svg></g><g><path d="M245.816 0c68.262 0 123.6 55.338 123.6 123.6 0 68.262-55.338 123.6-123.6 123.6-61.054 0-111.768-44.267-121.799-102.456h1.566c10.013 57.333 60.033 100.914 120.233 100.913 67.41 0 122.057-54.647 122.057-122.057 0-67.41-54.647-122.057-122.057-122.057-60.199 0-110.22 43.581-120.233 100.913h-1.566c10.03-58.189 60.745-102.456 121.799-102.456z" fill="#000000" stroke="transparent" data-fill-palette-color="tertiary"></path></g></svg></g><defs></defs></svg><rect width="395.52" height="247.2" fill="none" stroke="none" visibility="hidden"></rect></g></svg></g></svg>